<svg xmlns="http://www.w3.org/2000/svg" width="22.669" height="16.978" viewBox="0 0 22.669 16.978">
  <g id="email_1_" data-name="email(1)" transform="translate(0 -64.266)">
    <path id="Path_93180" data-name="Path 93180" d="M13.229,177.7a3.41,3.41,0,0,1-3.789,0L.151,171.509Q.074,171.457,0,171.4V181.55a2.086,2.086,0,0,0,2.087,2.087h18.5a2.086,2.086,0,0,0,2.087-2.087V171.4c-.049.037-.1.073-.151.107Z" transform="translate(0 -102.392)" fill="#1e2d59"/>
    <path id="Path_93181" data-name="Path 93181" d="M.888,68.011,10.177,74.2a2.081,2.081,0,0,0,2.315,0l9.289-6.193a1.989,1.989,0,0,0,.888-1.659,2.088,2.088,0,0,0-2.086-2.086H2.086A2.089,2.089,0,0,0,0,66.353a1.988,1.988,0,0,0,.888,1.658Z" fill="#1e2d59"/>
  </g>
</svg>
