<svg xmlns="http://www.w3.org/2000/svg" width="13.657" height="10.229" viewBox="0 0 13.657 10.229">
  <g id="email_1_" data-name="email(1)" transform="translate(0 -64.266)">
    <path id="Path_93182" data-name="Path 93182" d="M7.97,175.2a2.054,2.054,0,0,1-2.283,0l-5.6-3.731C.06,171.446.03,171.424,0,171.4v6.114a1.257,1.257,0,0,0,1.257,1.257H12.4a1.257,1.257,0,0,0,1.257-1.257V171.4c-.03.022-.06.044-.091.065Z" transform="translate(0 -104.278)" fill="#fff"/>
    <path id="Path_93183" data-name="Path 93183" d="M.535,66.522l5.6,3.731a1.254,1.254,0,0,0,1.395,0l5.6-3.731a1.2,1.2,0,0,0,.535-1A1.258,1.258,0,0,0,12.4,64.266H1.257A1.258,1.258,0,0,0,0,65.524a1.2,1.2,0,0,0,.535,1Z" fill="#fff"/>
  </g>
</svg>
