<svg xmlns="http://www.w3.org/2000/svg" width="5.535" height="10.603" viewBox="0 0 5.535 10.603">
  <g id="Path_93188" data-name="Path 93188" transform="translate(-117.273 10.603) rotate(-90)" fill="#52667c" stroke-linecap="square" stroke-miterlimit="10">
    <path d="M5.3,122.808a.23.23,0,0,1-.163-.067L.064,117.67a.231.231,0,0,1,.326-.326L5.3,122.252l4.908-4.908a.231.231,0,0,1,.332.32l-.006.006L5.461,122.74A.231.231,0,0,1,5.3,122.808Z" stroke="none"/>
    <path d="M 5.298259735107422 122.8082275390625 C 5.237229347229004 122.8082275390625 5.178687572479248 122.7840423583984 5.135475158691406 122.7409210205078 L 0.06433522701263428 117.6697769165039 C -0.02411477454006672 117.5782165527344 -0.02156477421522141 117.4322814941406 0.0699952244758606 117.3438262939453 C 0.1593352407217026 117.257568359375 0.3009452521800995 117.257568359375 0.3902552127838135 117.3438262939453 L 5.298655033111572 122.2517852783203 L 10.2065954208374 117.343376159668 C 10.2950439453125 117.2518310546875 10.44095516204834 117.2492828369141 10.53253555297852 117.3377151489258 C 10.62409496307373 117.426155090332 10.62662506103516 117.5720748901367 10.53819561004639 117.6636581420898 C 10.53633499145508 117.6655883789063 10.53445529937744 117.6674652099609 10.53253555297852 117.6693267822266 L 5.46141529083252 122.7404556274414 C 5.418188095092773 122.783821105957 5.359591960906982 122.8084945678711 5.298259735107422 122.8082275390625 Z" stroke="none" fill="#52667c"/>
  </g>
</svg>
