<svg xmlns="http://www.w3.org/2000/svg" width="13.646" height="7.123" viewBox="0 0 13.646 7.123">
  <g id="down-arrow_2_" data-name="down-arrow(2)" transform="translate(0 -117.272)">
    <path id="Path_154" data-name="Path 154" d="M13.155,117.363,6.84,123.679.524,117.363a.3.3,0,0,0-.419.419l6.526,6.526a.3.3,0,0,0,.419,0l6.526-6.526a.3.3,0,0,0-.412-.427l-.007.007Z" transform="translate(-0.021)" fill="#1e2d59"/>
    <path id="Path_155" data-name="Path 155" d="M6.819,124.4a.3.3,0,0,1-.21-.087L.083,117.784a.3.3,0,0,1,.419-.419l6.316,6.316,6.316-6.316a.3.3,0,0,1,.427.412l-.007.007-6.526,6.526A.3.3,0,0,1,6.819,124.4Z" transform="translate(0 -0.001)" fill="#1e2d59"/>
  </g>
</svg>
